<?xml version="1.0" encoding="UTF-8" standalone="no"?>
<!-- Created with Inkscape (http://www.inkscape.org/) -->

<svg
   width="356.08817mm"
   height="227.50294mm"
   viewBox="0 0 356.08816 227.50294"
   version="1.1"
   id="svg5"
   inkscape:version="1.2.2 (b0a8486541, 2022-12-01)"
   sodipodi:docname="LOCAL-sig3.svg"
   xmlns:inkscape="http://www.inkscape.org/namespaces/inkscape"
   xmlns:sodipodi="http://sodipodi.sourceforge.net/DTD/sodipodi-0.dtd"
   xmlns="http://www.w3.org/2000/svg"
   xmlns:svg="http://www.w3.org/2000/svg">
  <sodipodi:namedview
     id="namedview7"
     pagecolor="#505050"
     bordercolor="#eeeeee"
     borderopacity="1"
     inkscape:showpageshadow="0"
     inkscape:pageopacity="0"
     inkscape:pagecheckerboard="0"
     inkscape:deskcolor="#505050"
     inkscape:document-units="mm"
     showgrid="false"
     inkscape:zoom="0.72159091"
     inkscape:cx="629.85827"
     inkscape:cy="353.38583"
     inkscape:window-width="1920"
     inkscape:window-height="1002"
     inkscape:window-x="0"
     inkscape:window-y="42"
     inkscape:window-maximized="1"
     inkscape:current-layer="layer1" />
  <defs
     id="defs2" />
  <g
     inkscape:label="Layer 1"
     inkscape:groupmode="layer"
     id="layer1"
     transform="translate(14.339801,-49.284146)">
    <g
       id="g568"
       style="fill:#000000;fill-opacity:1;stroke:#000000;stroke-opacity:1">
      <path
         style="fill:#000000;stroke:#000000;stroke-width:1.05684;fill-opacity:1;stroke-opacity:1"
         id="path478"
         d="M 52.538883,134.38445 C 39.475337,128.82601 18.122133,116.17919 35.584146,101.61469 48.546892,84.644036 64.680392,69.92072 74.653837,50.799838 64.115023,64.572784 65.834771,83.230812 59.451699,98.819656 49.411876,135.40866 40.401414,172.26783 31.231464,209.08124 30.830198,225.79089 23.379239,199.59151 18.796301,194.64301 7.2632612,171.18805 -4.9989678,147.89827 -12.612453,122.785 c -5.427364,12.97369 9.1470082,24.8595 11.5805502,37.51746 C 7.8859351,179.47841 17.266481,198.4354 26.836436,217.29314 42.221684,205.45794 36.107573,183.28 43.906704,167.42142 53.590232,128.44087 63.992413,89.64315 74.625878,50.912307 62.2561,62.244474 55.814859,78.549646 43.366129,89.940279 33.357381,99.366006 15.04325,119.48627 35.048586,128.01024 c 4.938196,3.49155 10.950713,9.06073 17.490297,6.37421 z"
         sodipodi:nodetypes="cccccccccccccc" />
      <path
         style="fill:#000000;stroke:#000000;stroke-width:1.05684;fill-opacity:1;stroke-opacity:1"
         id="path480"
         d="m 339.28399,238.99638 c -0.75813,11.29274 -3.50698,40.90587 -14.11361,33.06504 -10.60662,-7.84084 -26.4753,-36.4884 -15.30206,-47.71926 6.80743,-6.84253 27.18532,-13.3308 28.55873,-17.22354 -12.00712,6.79084 -36.248,13.7172 -35.79409,23.73235 0.45392,10.01515 -0.76137,8.54278 3.59055,17.91336 4.35192,9.37058 14.85581,24.26398 21.53933,27.23439 3.16733,1.40769 7.65679,-2.80583 10.33356,-13.21507 3.01333,-11.71804 3.03522,-27.50334 3.12233,-30.14899 -1.14655,-8.17391 -3.29839,-37.02106 -18.39388,-42.68751 -16.3794,6.10223 1.02615,25.296 11.36465,11.76485 15.88929,-12.23915 1.28057,-38.89601 -15.19301,-21.32339 -6.83955,10.0379 -35.39118,15.41073 -27.99134,-3.24251 17.14714,-11.70821 28.21602,19.53302 10.35293,25.04219 -15.27703,2.63102 -19.44841,-14.57793 -18.88722,-24.96461 3.10904,9.87222 -4.50379,33.78123 -16.06724,21.45132 -2.1119,-7.53454 0.71639,-34.63392 -11.63321,-20.16277 -3.1492,6.1174 -7.6832,27.83058 -7.88607,25.20441 3.98041,-15.32839 -0.29063,-32.41715 0.40487,-47.59531 1.00139,-21.85376 6.88515,-30.93132 5.64432,-27.26204 1.72112,14.80082 -2.83321,24.68213 -6.78335,38.98048 0.0174,15.77474 -15.36047,26.81042 -22.07711,37.24438 -1.82003,-9.60572 -3.21752,-43.10472 -17.36366,-25.84631 -2.79382,7.29466 -3.80028,23.46701 -5.1383,25.53872 -0.76136,-8.22159 3.13222,-33.88309 -8.32959,-28.63841 -6.94239,7.09161 -11.71323,25.69286 -10.79096,29.52744 0.64946,-9.27507 0.64739,-28.06324 -3.79872,-30.57888 0.39896,9.57009 -3.9053,38.70485 -16.70028,28.07649 -6.42532,-6.90853 -1.81634,-24.93779 -7.23215,-27.37928 -3.16366,18.08879 -13.44313,40.91868 -18.42273,22.30152 -1.6026,-5.9916 2.31735,-27.93458 -6.7857,-21.90642 -1.16456,8.34572 -8.94322,27.75802 -5.28319,29.7739 1.88357,-9.14346 2.24463,-29.35211 -5.74053,-30.45937 -4.76139,8.61917 -9.54374,28.30795 -8.12201,32.14876 4.27898,-8.94744 2.2421,-29.22772 -2.77065,-32.73043 -11.934365,8.94241 -11.763854,23.14291 -21.483157,33.35311 0.793133,-10.3927 3.812336,-27.71705 -0.519445,-31.85052 -4.683538,12.70976 -13.234954,27.65962 -23.021581,34.88509 -14.427402,-2.9108 -22.9797,-23.95547 -6.468729,-30.13472 5.148387,-2.19376 17.53804,-8.84726 5.910323,-2.56743 -16.329124,7.50922 -30.497788,22.45842 -35.526038,39.65019 9.444621,-12.63089 15.572872,-28.51604 30.106536,-36.62283 4.839744,-6.55163 28.293615,-5.66384 26.228398,-8.16891 -14.85201,0.4224 -35.165998,4.48048 -39.158912,21.22207 -0.286382,17.54396 23.026748,25.78006 31.491716,8.67075 6.180955,-6.47545 14.904991,-26.15766 11.463354,-28.36295 -6.576092,9.6381 -4.454801,30.12204 -1.490034,36.71395 11.919106,-7.2118 17.477329,-26.11307 22.092159,-34.23317 6.80106,7.25678 -2.67802,27.7373 4.41501,28.57044 3.76754,-8.62727 7.91806,-26.23779 8.03464,-30.45887 1.3253,10.37554 1.39269,31.5834 4.93205,32.10796 1.88813,-11.13738 6.64493,-19.67791 7.63184,-30.97026 -1.08035,10.8158 -0.3837,40.57133 16.42108,27.20041 6.4277,-6.02861 10.36837,-26.75782 6.38771,-28.01281 -2.32436,10.76299 -0.75924,40.89984 15.6561,29.54147 8.59402,-4.83508 15.30082,-26.65243 8.3607,-29.7574 -0.85007,9.41442 -3.14998,26.33962 4.01162,31.24261 4.6682,-8.94195 6.55262,-28.03618 13.05096,-29.63908 4.16803,9.21794 -1.36382,23.08431 5.85537,28.56191 8.87247,-8.00339 4.07024,-23.4174 10.75218,-30.02992 9.6376,6.10112 1.23432,36.56064 17.24898,25.40644 17.75264,-19.12766 26.45041,-46.05318 26.79679,-71.56349 -4.41547,-18.25039 -12.99441,10.01861 -11.80336,16.82578 -0.25266,17.16084 0.16314,34.23447 -0.58238,51.36379 4.96952,17.57125 9.34966,-10.56677 11.97572,-16.49158 8.35888,-10.91684 2.36764,15.25392 8.54421,20.26016 5.68375,7.4684 14.48277,0.54136 17.75098,-4.66665 0.66651,-1.06211 4.78953,5.52676 11.46528,7.41969 18.68391,5.2979 25.88317,-24.80549 9.92443,-31.34839 -19.66728,-9.2387 -23.61579,24.44989 -2.07642,19.48155 12.47361,-0.50144 29.25307,-26.99707 37.08867,-7.55662 3.65073,10.55883 -17.44592,26.62906 -20.66509,11.583 18.67849,0.12913 20.57412,28.25262 20.88773,42.45973 z"
         sodipodi:nodetypes="czsczzsscssccscssssccscsscsscsscsscccccsscscccsscccccsccccccscssscssscscc" />
    </g>
  </g>
</svg>
