<?xml version="1.0" encoding="UTF-8" standalone="no"?>
<!-- Created with Inkscape (http://www.inkscape.org/) -->

<svg
   width="374.21725mm"
   height="220.72258mm"
   viewBox="0 0 374.21725 220.72258"
   version="1.1"
   id="svg5"
   inkscape:version="1.2.2 (b0a8486541, 2022-12-01)"
   sodipodi:docname="LOCAL-sig1.svg"
   xmlns:inkscape="http://www.inkscape.org/namespaces/inkscape"
   xmlns:sodipodi="http://sodipodi.sourceforge.net/DTD/sodipodi-0.dtd"
   xmlns="http://www.w3.org/2000/svg"
   xmlns:svg="http://www.w3.org/2000/svg">
  <sodipodi:namedview
     id="namedview7"
     pagecolor="#505050"
     bordercolor="#eeeeee"
     borderopacity="1"
     inkscape:showpageshadow="0"
     inkscape:pageopacity="0"
     inkscape:pagecheckerboard="0"
     inkscape:deskcolor="#505050"
     inkscape:document-units="mm"
     showgrid="false"
     inkscape:zoom="0.36079545"
     inkscape:cx="834.26772"
     inkscape:cy="271.62205"
     inkscape:window-width="1920"
     inkscape:window-height="1002"
     inkscape:window-x="0"
     inkscape:window-y="42"
     inkscape:window-maximized="1"
     inkscape:current-layer="layer1" />
  <defs
     id="defs2" />
  <g
     inkscape:label="Layer 1"
     inkscape:groupmode="layer"
     id="layer1"
     transform="translate(32.099862,-57.595737)">
    <path
       style="fill:#008000;stroke:#0d8a1e;stroke-width:1.05684"
       id="path478"
       d="m 36.825547,141.91548 c -5.040485,-2.74539 -9.946431,-5.7364 -14.826395,-8.75619 -2.140446,-1.35232 -4.264228,-2.74002 -6.29133,-4.25931 -0.786994,-0.58984 -1.451765,-1.07927 -2.071282,-1.83734 -0.217982,-0.26673 -0.379489,-0.575 -0.569233,-0.86251 -1.53709,-3.6099 -0.04558,-6.21172 1.574611,-9.50722 3.347554,-5.96392 8.00101,-11.02029 12.352606,-16.24721 3.326408,-4.264889 6.991086,-8.244955 10.520246,-12.338284 2.722618,-3.157853 3.770397,-4.459264 6.436593,-7.683847 4.416539,-5.652534 8.818679,-11.356014 12.548568,-17.493903 0.722064,-1.184823 1.291593,-2.448801 1.873517,-3.704804 0.105924,-0.228619 0.184719,-0.472194 0.319678,-0.684967 0.05783,-0.09116 0.342543,-0.259985 0.247375,-0.209023 -1.190718,0.637616 -2.359867,1.314722 -3.5398,1.972085 -0.269054,1.027512 -0.412422,2.083186 -0.666041,3.113881 -0.307152,1.248241 -0.681206,2.479156 -1.003636,3.723537 -0.598289,2.309026 -1.176766,4.623146 -1.758455,6.936412 -0.807632,3.2118 -1.606341,6.425842 -2.40951,9.638765 -0.960014,3.810288 -1.920028,7.620574 -2.88004,11.43086 -3.793828,15.511028 -8.347755,30.820738 -12.350353,46.276328 -1.84686,7.13145 -3.58268,14.29119 -5.374783,21.43659 -4.586396,17.89104 -8.904906,35.84913 -13.439755,53.75294 3.160339,2.60762 -3.535692,5.20066 -2.404376,7.60751 0.328258,0.69837 1.845245,-0.69831 1.790013,-1.46799 -0.07221,-1.00626 -1.490155,-1.38605 -2.054812,-2.22207 -2.117314,-3.13484 -5.3652715,-9.99856 -6.838745,-12.95129 -1.6211894,-3.2028 -3.2288771,-6.41248 -4.8635683,-9.60841 -5.1068918,-9.98433 -6.0318124,-11.41238 -10.8910154,-21.63257 -2.4362963,-5.12417 -6.9409393,-15.11796 -9.2205663,-20.50029 -1.197625,-2.82767 -2.307657,-5.69164 -3.461486,-8.53746 -2.181712,-5.58606 -4.081316,-11.2718 -5.899361,-16.98367 0,0 -3.126147,1.72276 -3.126147,1.72276 v 0 c 1.996665,5.63324 4.056245,11.24398 6.315469,16.7787 1.196697,2.82475 2.358084,5.66473 3.590091,8.47427 2.109,4.80948 7.206007,15.90228 9.362619,20.43186 6.8069425,14.29675 3.8605115,7.72629 10.7625215,21.70685 1.59045426,3.22159 3.1190095,6.47337 4.6785143,9.71006 0.9804561,2.11016 4.8318152,10.65976 6.4350034,13.29122 0.5996508,0.98427 1.0198848,2.65237 2.1717998,2.69045 4.1004,0.13556 4.82263,-2.55084 5.576976,-5.25919 0.433359,-1.55591 0.750424,-3.14188 1.125635,-4.71281 4.238539,-17.87503 8.383143,-35.77415 13.022797,-53.55106 1.800617,-7.13955 3.539106,-14.29478 5.365171,-21.42786 3.956605,-15.45554 8.404275,-30.78215 12.299722,-46.254255 1.808451,-6.84459 3.775369,-14.402411 5.693008,-21.257746 0.661302,-2.364076 1.368853,-4.71497 2.053277,-7.072456 0.378455,-1.269224 0.77783,-2.532395 1.135359,-3.807668 0.486127,-1.733976 0.503079,-1.923278 0.776515,-3.335814 -1.208108,0.479954 -2.441622,0.900329 -3.624326,1.43986 -0.101451,0.04628 -0.119015,0.189187 -0.167177,0.289761 -0.105597,0.220511 -0.194521,0.448635 -0.293491,0.6722 -0.545304,1.231823 -1.105869,2.458649 -1.793846,3.619585 -3.650253,6.082228 -7.909716,11.777583 -12.311372,17.331928 -2.786145,3.358882 -3.620053,4.403087 -6.471891,7.687368 -3.570851,4.112326 -7.277309,8.111013 -10.640632,12.400027 -4.365668,5.24945 -9.006825,10.34931 -12.35389,16.34349 -1.7032782,3.4638 -3.2233214,6.17295 -1.5496495,9.94304 0.2073788,0.30532 0.3849935,0.63313 0.6221365,0.91596 0.674209,0.80406 1.309688,1.23839 2.171793,1.85523 2.080281,1.48845 4.248263,2.85138 6.416014,4.20686 4.857054,2.98631 9.740161,5.93002 14.597459,8.9159 0,0 3.311877,-2.14907 3.311877,-2.14907 z" />
    <path
       style="fill:#008000;stroke:#0d8a1e;stroke-width:1.05684"
       id="path480"
       d="m 339.28399,238.99638 c -0.53933,4.82601 -0.77612,9.55962 -1.29942,14.06597 -0.24834,2.09408 -0.60836,4.17413 -0.97888,6.25008 -1.15771,8.7099 -5.11923,16.04425 -8.79594,16.19069 -1.66942,-0.27824 -2.53019,-0.28827 -4.08506,-1.14014 -0.83098,-0.45527 -1.65376,-0.96457 -2.33011,-1.62816 -4.15819,-4.07967 -6.02665,-9.90468 -8.17462,-15.13865 -2.06595,-5.6703 -3.86067,-11.44603 -5.27992,-17.31324 -0.46823,-1.93561 -1.14019,-5.08351 -1.37496,-7.16296 -0.0924,-0.81879 -0.086,-1.64575 -0.12893,-2.46862 0.0694,-0.65179 0.0682,-1.31502 0.20823,-1.95536 0.59867,-2.73825 2.77452,-4.80618 4.96871,-6.37274 0.59762,-0.42668 1.24765,-0.77476 1.87148,-1.16214 -0.42601,0.29028 -1.78829,0.94374 -1.27799,0.87085 0.77396,-0.11056 1.4179,-0.65913 2.12534,-0.9919 0.79182,-0.37244 1.58626,-0.73948 2.37242,-1.12371 3.00839,-1.47034 5.91066,-3.12653 8.8347,-4.75555 3.89874,-2.17202 7.77486,-4.3876 11.72334,-6.46872 l 2.98852,-2.40151 v 0 c 0,0 -7.91884,4.38091 -11.87354,6.57912 -2.89489,1.61067 -5.76461,3.25796 -8.74234,4.71285 -1.47783,0.72207 -3.01657,1.31901 -4.47347,2.08243 -1.75482,0.91954 -3.47043,1.91207 -5.20567,2.8681 -0.61595,0.40128 -1.25842,0.76457 -1.84788,1.20384 -2.22507,1.6581 -4.36023,3.81919 -4.87154,6.658 -0.11766,0.65313 -0.0923,1.32405 -0.13848,1.98608 0.0694,0.8237 0.0913,1.6528 0.20833,2.47109 0.29078,2.03292 1.05696,5.22578 1.55425,7.10464 1.54426,5.83474 3.4204,11.58062 5.46298,17.25794 2.04933,5.17256 3.98743,11.38733 7.93009,15.51499 0.66958,0.701 1.49746,1.24497 2.33357,1.73553 1.54903,0.90882 2.44298,0.95161 4.12451,1.28576 1.53117,0.0327 1.87405,0.11838 3.34328,-0.1357 3.00073,-1.03688 5.44164,-1.79719 7.21339,-3.95495 0.38007,-0.46757 0.6318,-1.02622 0.94771,-1.53933 0.24791,-0.71647 0.52448,-1.42366 0.74374,-2.14942 1.19629,-3.95943 2.01853,-8.07614 2.68632,-12.1514 0.3398,-2.07357 0.67257,-4.15004 0.90469,-6.2384 0.26,-2.33953 0.38063,-4.69245 0.57097,-7.03868 0.004,-2.40532 0.14097,-4.81417 0.0108,-7.21597 -0.382,-7.04779 -1.59676,-22.05523 -5.33964,-28.11619 -1.44616,-6.63932 -1.97585,-5.31608 -4.03613,-12.53681 -3.42619,-6.87692 -7.63561,-9.51569 -15.29723,-3.19685 -5.33303,10.61419 2.96631,12.07732 9.84636,11.92875 5.75847,-0.12435 12.38748,-9.14157 12.8435,-11.89262 1.17287,-7.07555 1.42867,-14.09591 -0.21293,-17.77519 -5.62196,-1.03983 -11.1636,-1.7716 -17.81141,1.78912 -2.87219,2.20343 -6.10765,6.19333 -11.00305,9.31797 -7.46565,3.11292 -10.20422,3.26611 -14.96621,3.00571 -8.79809,-1.11878 -6.94719,-9.39276 -5.37937,-12.95161 1.04144,-2.09061 7.82442,-2.24862 11.69658,-1.42444 1.50388,0.3201 7.27515,-0.58964 7.80454,9.75392 -0.32375,3.09413 1.91362,14.8305 -8.64943,17.36784 -8.20549,0.007 -16.22203,-2.81903 -16.11104,-10.50022 -1.72588,-21.66987 -2.93238,-23.26947 -2.89419,-1.07301 -1.5303,10.18631 -7.85792,10.74776 -13.39711,12.37619 -2.88705,0.96181 -3.03456,-16.02141 -4.26504,-22.18409 -0.48922,-2.38631 -0.37307,-5.16348 -1.44,-7.38552 -0.20913,-0.43554 -0.51504,-0.8176 -0.77256,-1.2264 -0.28419,-0.2101 -0.51686,-0.74086 -0.85254,-0.63031 -1.47944,0.48723 -2.79892,1.38831 -4.09088,2.25835 -0.56682,0.3817 -1.41041,2.29314 -1.58168,2.68277 -0.94792,2.15639 -1.39938,3.60385 -2.21075,5.9067 -1.80949,5.45301 0.73238,-2.90358 -0.95946,2.58722 -1.33551,4.33431 -2.61229,8.68684 -3.98246,13.01032 -0.48533,1.53143 -1.0155,3.04828 -1.52326,4.57242 -0.35609,0.75485 -1.77882,1.82668 -1.06828,2.26454 0.90795,0.55951 2.08548,-0.54515 3.01769,-1.06324 0.15804,-0.0878 -0.1508,-0.33135 -0.19129,-0.50756 -0.33659,-1.46482 -0.33879,-2.99673 -0.50533,-4.48186 -0.23879,-6.65884 -0.31802,-13.31959 -0.24,-19.98286 0.0135,-6.13791 0.0321,-12.27581 0.0251,-18.41375 0.0312,-6.68496 0.14224,-13.37547 0.70968,-20.04017 0.49883,-5.15555 1.01729,-10.31252 2.41921,-15.3182 0.24566,-0.87712 1.42404,-1.90613 0.83586,-2.60163 -0.59,-0.69765 -1.8097,0.25344 -2.71454,0.38016 0.0715,-0.0599 0.16066,-0.25575 0.21449,-0.17961 0.11454,0.16204 0.62439,2.19767 0.62599,2.20444 0.53999,2.27894 0.94116,4.59119 1.16205,6.92373 0.20588,3.06167 0.32528,3.75667 0.22349,6.90992 -0.15876,4.9182 -0.97077,9.7996 -2.20444,14.55688 -0.88653,2.99527 -1.0578,3.83318 -2.22244,6.73388 -1.98523,4.94449 -0.11996,14.96447 -3.14506,19.33214 -2.7631,3.75552 -2.91791,4.06071 -5.90933,7.73292 -5.24618,6.21572 -7.17715,9.00664 -13.15496,17.61492 -4.3659,2.46188 0.78638,0.87829 1.44887,0.0464 -0.13225,-0.0416 -0.19947,-0.19262 -0.29921,-0.28894 -0.49576,-0.86164 -1.54215,-1.60036 -1.89004,-2.53253 -3.02429,-7.42957 -2.9336,-20.30849 -5.80386,-27.32824 -0.35433,-0.32865 -0.76793,-0.58697 -1.1519,-0.88045 -0.72326,-0.38513 -2.89861,-1.60318 -3.76264,-1.28585 -0.29202,0.10724 -4.24227,1.77426 -5.39615,2.95743 -0.35894,0.36806 -0.6282,0.81401 -0.9423,1.22102 -2.96338,5.20569 -2.50431,22.58003 -5.45457,27.79475 -0.40814,0.64693 -1.92588,1.6357 -1.22444,1.94078 0.96397,0.41925 2.00411,-0.67938 2.91387,-1.206 0.12847,-0.0744 -0.26807,-0.15409 -0.34583,-0.28053 -0.57255,-0.93108 -0.72217,-2.4088 -1.16902,-3.39105 -1.06393,-3.36001 0.49027,-22.41982 -1.30129,-25.46849 -0.74882,-1.06073 -1.51406,-2.29759 -2.70986,-2.93155 -0.24777,-0.13136 -0.54935,-0.3526 -0.80628,-0.24021 -2.98622,1.30624 -3.05252,1.45609 -4.51224,2.86654 -1.44241,1.47433 -5.8348,15.18761 -6.86046,16.99481 -1.73719,3.37361 -2.77683,7.04728 -3.81726,10.68245 -0.74251,2.6407 0.45864,-0.79474 -0.38934,1.81461 -0.21707,0.66797 -1.3432,1.74194 -0.68686,1.99196 1.04432,0.39782 2.26979,-0.40154 3.18737,-1.03943 0.2948,-0.20494 -0.10665,-0.71011 -0.15998,-1.06517 -0.2856,-8.05004 -2.07819,-10.03454 -2.15174,-18.08771 -0.0104,-3.76718 -0.0167,-7.53447 -0.0353,-11.30161 -0.003,-0.68842 0.63071,-1.82932 -0.016,-2.06522 -4.42626,-1.61449 -3.96883,-0.33763 -3.58406,0.89709 0.10772,3.2076 0.0684,6.41901 0.0184,9.62727 -0.0887,2.98814 -0.11595,6.0417 -1.10969,8.89716 -1.05927,2.75177 -2.2816,5.43831 -4.14949,7.74989 -1.51224,1.87451 -3.09589,3.49515 -4.99734,4.98437 -0.47939,0.37545 -2.04607,0.90279 -1.46642,1.08933 0.66277,0.2133 1.23495,-0.64341 1.85242,-0.96511 -0.83194,0.42902 -1.43984,0.85712 -2.38054,0.95975 -1.33314,0.14544 -2.39668,-0.70681 -3.07297,-1.75242 -2.2809,-4.48166 -3.58627,-9.40689 -4.31951,-14.3662 -0.12399,-1.09598 -0.27279,-2.18944 -0.37198,-3.28795 -0.1966,-2.17744 -0.24838,-4.11155 -0.34351,-6.29331 -0.0569,-1.30547 -0.20439,-4.3214 -0.2296,-5.67956 -0.0135,-0.73017 0.004,-1.46058 0.006,-2.19088 -1.16042,0.25581 -2.32263,0.5036 -3.48126,0.76742 -0.22298,0.0508 0.0371,0.45625 0.0393,0.68492 0.012,1.22652 -0.0299,2.4535 -0.13646,3.67568 -0.49483,4.31716 -1.58746,8.53424 -2.43925,12.78938 -0.69001,2.60372 -0.58861,2.36002 -1.41151,4.91406 -2.01029,3.86144 -1.83708,9.48407 -9.70915,9.26996 -3.1967,-2.67651 -3.08225,-3.61563 -3.0685,-4.40679 -0.002,-3.30472 0.0501,-6.61369 -0.14816,-9.9142 -0.22646,-2.7775 -0.648,-5.52502 -1.07278,-8.27802 -0.35147,-2.35786 -0.49078,-4.78364 -1.28931,-7.04524 -0.26352,-0.69961 -0.46844,-1.57415 -0.9224,-2.18456 -1.17313,-1.57742 -3.70502,0.74747 -4.22752,2.30722 -1.05054,3.49756 -1.768,7.0928 -2.70337,10.62093 -1.1617,4.80606 -2.17695,9.66109 -3.49179,14.42833 -0.19303,0.69988 -1.29346,1.78312 -0.63277,2.08407 0.9987,0.45492 -0.32321,5.91487 0.72911,5.60344 -0.0375,-0.0265 2.32315,-6.57201 2.31534,-6.61731 -0.14553,-0.84362 -0.12683,-1.70754 -0.20439,-2.5601 -0.23954,-2.63334 -0.47305,-5.26709 -0.72089,-7.89977 -0.41956,-4.01769 -0.81233,-8.047 -1.43727,-12.03958 -0.25096,-1.60337 -0.66362,-3.97853 -1.19782,-5.61392 -0.14555,-0.44558 -0.3798,-0.85711 -0.5697,-1.28567 -1.31323,0.5351 -2.67372,0.96636 -3.93968,1.6053 -0.41133,0.20761 -0.78734,1.65719 -0.82783,1.80633 -0.68201,2.51238 -1.03738,5.10947 -1.53464,7.65935 -1.25747,7.86271 -6.23962,16.01014 -6.15085,23.99501 1.19607,-0.17174 -1.09076,1.53579 0.0656,1.18527 0.18551,-0.0562 3.54659,-2.08757 3.55049,-2.28138 0.0118,-0.58125 0.0439,-1.16315 0.0194,-1.74402 -0.0996,-2.36559 -0.27249,-5.9159 -0.44619,-8.87093 -0.22913,-2.88005 -0.38122,-5.15903 -0.73142,-8.03791 -0.44351,-3.64599 1.03661,-11.45301 -0.2365,-13.12178 -1.27311,-1.66877 -0.6655,-0.6292 -0.99249,-0.78641 -0.32699,-0.15721 0.68062,-0.8034 -0.9021,-0.12448 -1.58272,0.67891 -3.77272,1.23784 -5.88442,4.26921 -2.1117,3.03136 -6.204738,11.71599 -8.256338,15.85059 -4.558238,7.02567 -4.82665,6.58261 -9.334814,13.93564 -0.567378,0.84598 -1.108059,1.71048 -1.702131,2.53792 -0.460705,0.64169 -2.046906,1.33772 -1.460121,1.86657 0.655754,0.59102 1.651172,-0.62563 2.469459,-0.95687 0.119668,-0.0485 -0.283379,0.20171 -0.371991,0.10782 -0.164888,-0.1747 -0.146698,-0.45949 -0.183912,-0.69682 -0.06001,-0.38272 -0.07121,-0.77152 -0.106817,-1.15729 2.309921,-18.92938 0.02576,-22.84668 3.998688,-34.24988 0.203983,-0.57433 -0.753644,-1.23022 -0.49835,-1.78366 -1.048086,0.4145 -2.160281,0.69389 -3.144258,1.24351 -0.133967,0.0748 0.123145,0.28969 0.12469,0.44313 0.004,0.39335 -0.05151,0.78588 -0.108387,1.17511 -0.354361,2.42509 -1.079836,4.77868 -1.881057,7.08754 -1.400485,3.70872 -0.269082,-1.52579 -1.951049,2.30041 -3.53841,8.04929 -3.959933,7.15505 -8.633485,14.60359 -1.525802,2.30567 -5.298223,6.8838 -7.177672,9.05963 -0.562211,0.65087 -1.674957,0.9205 -1.755319,1.7768 -0.06195,0.66009 1.377534,0.1162 1.800293,-0.39452 0.558522,-0.67473 -2.275151,1.04167 -1.789392,-0.22258 -3.172822,-0.97669 -7.19962,-1.69734 -9.864699,-3.73599 -0.415787,-0.35542 -0.855678,-0.68444 -1.247357,-1.06627 -2.209072,-2.15351 -3.59873,-5.02956 -4.45494,-7.95346 -0.103855,-0.64523 -0.256339,-1.2845 -0.311566,-1.93571 -0.124851,-1.47214 0.006,-2.9627 0.167918,-4.4237 0.318418,-2.8734 -1.150892,1.04506 -0.505763,-1.77157 1.126318,-4.18584 0.752687,-2.28617 3.571049,-5.71042 0.348528,-0.42345 0.770057,-0.78112 1.155087,-1.17168 0.377862,-0.30108 0.742061,-0.62016 1.133588,-0.90325 0.0038,-0.003 5.022308,-3.2265 -1.102037,0.5439 -0.342188,0.21067 0.707395,-0.38181 1.067763,-0.5596 0.377241,-0.18611 2.091063,-0.96093 2.409346,-1.10559 3.291377,-1.45721 6.495053,-3.13303 9.884614,-4.35243 0.278659,-0.0748 0.557316,-0.14949 0.835972,-0.22423 0.04393,-0.14912 0.0034,-0.35977 0.131779,-0.44737 1.022384,-0.69734 2.15447,-1.21852 3.223847,-1.84141 0.203176,-0.11834 -0.414748,0.22175 -0.62475,0.32751 -3.074342,1.54822 1.970362,-1.18726 -5.512088,3.04441 -3.908227,2.43924 -9.427366,3.57508 -12.394784,7.11527 -6.18195,7.27568 -6.747472,3.4799 -12.380338,11.19068 -5.187653,7.35603 -10.297349,14.84351 -14.077847,23.04335 l 3.532922,-1.6259 -3.17e-4,5e-5 c 3.513689,-8.17256 8.597163,-15.54258 13.695824,-22.78642 5.667703,-7.77255 5.752805,-4.10611 12.059776,-11.36638 3.030101,-3.53006 9.161131,-4.55933 13.138189,-6.95321 -0.680156,0.41132 -1.388303,0.77955 -2.040469,1.23394 -0.468757,0.3266 1.995335,-0.20459 2.486261,-0.49682 1.180957,-0.70295 18.175563,-2.80151 19.210988,-3.70522 0.182259,-0.15908 -17.023787,0.93582 -17.264198,0.90888 -0.309917,-0.0347 -0.608213,0.13817 -0.91232,0.20726 -3.436054,1.17673 -6.666368,2.87302 -9.982994,4.34301 -2.766295,1.13316 -5.313338,2.6392 -7.882734,4.16912 -0.382449,0.22773 -0.752956,0.47693 -1.107495,0.74605 -0.385247,0.29244 -0.739071,0.62411 -1.108607,0.93616 -0.37329,0.4025 -0.785447,0.77217 -1.119873,1.20749 -2.696403,3.50996 -2.26908,1.63411 -3.367085,5.82724 -0.617516,2.84304 0.825875,-1.06069 0.488182,1.83098 -0.173971,1.48973 -0.317283,2.99518 -0.188926,4.49729 0.05726,0.67016 0.218088,1.32741 0.327134,1.99112 0.894556,2.98247 2.30279,5.93067 4.536281,8.15621 0.398568,0.39715 0.847717,0.74007 1.271577,1.11011 2.674368,2.09457 5.907222,3.23154 9.098317,4.27852 0.447479,0.0681 0.88982,0.20675 1.34244,0.20419 2.304267,-0.0131 4.739201,-1.98478 6.254639,-3.05077 1.308079,-0.92013 4.817343,-2.94702 5.524137,-4.00632 3.554792,-2.496 13.169515,-21.84889 13.867528,-23.91784 0.862391,-2.5313 0.919097,-3.49715 1.50554,-5.91431 0.141317,-0.58247 0.497888,-2.26256 0.503862,-2.99932 0.0016,-0.20218 0.06039,-0.66525 -0.128386,-0.59283 -1.404419,0.53882 -2.640785,1.44122 -3.961181,2.16182 -0.201358,0.57821 -0.434419,1.14632 -0.60408,1.73461 -1.279562,4.43681 -0.552572,2.73768 -1.255565,7.29187 -0.810252,5.24905 0.999682,0.30622 0.356406,5.54555 -0.725075,7.20563 -1.565886,14.42248 -1.78331,21.66722 0.0088,0.1377 0.04235,1.6912 0.253794,1.98555 0.127071,0.1769 0.391607,0.38724 0.58602,0.28904 1.536787,-0.77623 3.019491,-1.69176 4.351303,-2.78287 0.397232,-0.32544 2.918732,-4.32658 2.975919,-4.41533 5.11438,-6.69895 7.526775,-9.82974 9.684069,-12.93654 2.118351,-4.16753 6.527141,-14.77443 8.055651,-16.90508 1.52852,-2.13066 1.01456,-1.24498 1.33439,-1.51669 0.31984,-0.27171 1.18551,-0.75053 0.62493,-0.41757 -0.56058,0.33296 -2.19435,1.21978 -2.69668,1.64809 -0.50232,0.4283 0.50404,-0.1274 0.79977,-0.0307 0.29573,0.0967 0.58523,0.25811 0.89238,0.58397 0.30716,0.32586 0.39178,-0.83373 0.9172,1.3358 0.52542,2.16953 0.0257,7.60126 0.413,10.56145 0.39711,3.03508 -0.51696,5.81221 -0.29109,8.84698 0.15015,2.97032 0.35176,5.94429 0.30102,8.92065 -0.01,0.58593 -0.35656,1.68738 -0.41396,2.27058 -0.0198,0.20148 0.0208,0.1953 0.18306,0.0742 1.21155,-0.90421 2.26212,-2.00615 3.39318,-3.00922 0.94956,-7.56389 4.61276,-16.02074 5.95927,-23.79641 0.5611,-2.56526 0.926,-5.2058 1.72008,-7.71823 0.12996,-0.41121 0.26377,-0.82941 0.48581,-1.19912 0.1232,-0.20515 0.72739,-0.61839 0.52708,-0.48744 -1.01577,0.66406 -1.98683,1.39412 -2.98025,2.09118 0.16462,0.34156 0.36606,0.6677 0.49386,1.02468 0.60626,1.69339 1.02639,3.70502 1.33368,5.43663 0.70428,3.96876 1.07793,7.98124 1.45744,11.99016 0.21122,2.65581 0.40133,5.31401 0.56846,7.97298 0.0325,0.51678 0.0569,1.03406 0.079,1.55139 0.0148,0.34773 1.16723,5.58796 1.21293,5.93298 0.0148,0.11164 -1.08313,-4.68656 -1.03411,-4.58518 1.27161,-0.90981 0.10372,5.60855 1.15182,4.4483 0.47508,-0.5259 3.01397,-8.55109 3.17745,-9.24069 0.24298,-1.0249 0.47389,-2.05264 0.70487,-3.08032 0.84856,-3.77533 1.70915,-7.53978 2.64866,-11.29376 0.60779,-2.48051 1.30314,-4.93785 1.98349,-7.39897 0.3084,-1.11566 0.60112,-2.22535 0.98543,-3.31707 0.85828,-1.42764 0.5031,-0.69192 -2.81397,1.48513 -0.0407,0.0267 0.11332,-0.0252 0.14562,0.0112 0.10867,0.12252 0.17372,0.27861 0.24303,0.42699 0.12049,0.25797 0.51258,1.29208 0.60314,1.52745 0.76899,2.23354 0.94454,4.61954 1.30515,6.94264 0.42787,2.74676 0.82909,5.49183 1.03736,8.2648 -1.06796,17.69047 10.10779,19.2719 17.286,7.87641 1.14924,-1.92577 1.8258,-4.09081 2.49175,-6.21575 0.8176,-2.60887 0.6929,-2.26506 1.38461,-4.92716 0.80035,-4.29954 1.99661,-8.52867 2.49952,-12.87865 0.10814,-1.24353 0.15361,-2.49136 0.17415,-3.73903 0.004,-0.2284 0.005,-0.45684 0.005,-0.68527 -5e-5,-0.0387 0.0244,-0.14002 -0.006,-0.11608 -1.19124,0.93586 -2.34284,1.92112 -3.51426,2.88169 0.32319,4.69248 0.32261,9.41366 0.76518,14.09797 0.10411,1.10197 0.26129,2.19826 0.39194,3.29739 0.77824,4.99991 2.05849,9.97631 4.21794,14.56754 0.69767,1.15681 1.80314,2.12514 3.24399,2.10035 1.08514,-0.0187 1.55802,-0.3672 2.55325,-0.81221 3.78929,-2.01231 7.31462,-4.42261 10.11664,-7.69551 0.3652,-0.42658 0.69251,-0.88419 1.03877,-1.32629 1.86954,-2.35089 3.06955,-5.08865 4.13405,-7.87183 0.95354,-2.89379 0.9472,-5.97915 1.00711,-8.99349 0.0368,-3.22823 0.002,-6.45722 0.0691,-9.6851 1.45353,0.79446 -0.97048,-0.58256 -3.38537,2.68395 -0.39792,0.53824 0.078,1.33652 0.1048,2.00534 0.14962,3.72896 0.18179,7.46135 0.23073,11.19253 0.15814,8.08387 1.95623,10.094 1.98457,18.17788 0.0216,0.38323 -0.30118,1.2656 0.0647,1.14969 1.43618,-0.45495 2.77223,-1.32168 3.83832,-2.38611 0.48672,-0.48595 0.35722,-1.32841 0.54477,-1.99013 0.7453,-2.62953 -0.41392,0.83099 0.33306,-1.79816 1.05328,-3.64808 5.10796,-19.53223 6.94261,-22.87412 1.07693,-1.76314 2.51995,-3.24236 3.96945,-4.69654 0.19458,-0.18011 0.38916,-0.36022 0.58373,-0.54033 -0.91435,0.548 -1.90839,0.98093 -2.74306,1.64401 -0.16903,0.13427 0.444,-0.0517 0.64728,0.0209 0.29687,0.10613 0.55963,0.29889 0.80411,0.49794 0.82823,0.67431 1.16701,1.26355 1.8153,2.13753 1.82378,2.9622 0.19548,22.0617 1.23674,25.36353 0.47705,1.06676 0.5583,2.41188 1.12651,3.4442 0.0957,0.17392 0.21442,0.52236 0.39688,0.4441 4.22701,-1.81297 3.56897,-1.41648 5.12929,-4.33883 2.80466,-5.29768 2.39519,-22.65972 5.48021,-27.8054 -1.49413,0.36206 2.80062,-2.4126 2.06212,-1.85598 -0.74307,0.56007 -1.74981,0.83985 -2.28843,1.59861 -0.21951,0.30922 0.76369,-0.0415 1.13742,0.0228 0.97558,0.16786 1.60859,0.57005 2.48025,1.00789 0.37268,0.27518 0.77335,0.51603 1.11806,0.82555 2.24916,2.0196 3.10876,18.74041 4.32179,21.45796 0.28578,0.69527 0.58114,1.38667 0.85733,2.0858 3.19355,5.56053 1.5037,7.28828 5.39669,4.28208 0.42726,-0.32424 -0.83406,-1.12202 -0.5315,-1.5649 0.46596,-0.68206 1.2622,2.00048 1.73301,1.32177 5.98442,-6.52562 11.71888,-15.37369 14.39796,-18.52217 6.58662,-7.69075 1.42964,-5.57433 4.21658,-9.36033 4.83404,-7.75387 5.0438,-17.38361 7.15038,-24.64023 1.22027,-4.78105 2.00264,-9.68479 2.15245,-14.62185 0.0944,-3.11031 -0.022,-3.9419 -0.20574,-6.97095 -0.1932,-2.36669 -0.577,-4.71236 -1.06484,-7.03458 -0.0958,-0.45593 -0.20013,-0.91011 -0.31142,-1.36251 -0.0754,-0.30642 -0.0926,-0.63907 -0.24842,-0.91349 -0.0786,-0.13849 -0.27313,-0.16386 -0.4097,-0.24578 -1.33447,1.17529 -2.91515,2.11953 -4.00341,3.52588 -0.27608,0.35678 -1.44738,5.72087 -1.46085,5.7907 -0.77283,4.00642 -1.14142,8.06896 -1.5337,12.12477 -0.6108,6.69124 -0.73306,13.40966 -0.80338,20.1237 -0.0443,6.12683 0.0177,12.2538 0.0472,18.38057 0.0308,6.68634 -0.0161,13.37133 0.11714,20.05675 0.1151,1.65813 0.11299,1.89981 0.28633,3.45941 0.0413,0.37148 0.0728,0.74497 0.14217,1.11225 0.0384,0.2035 -0.0104,0.67559 0.18022,0.59459 4.3765,-1.85984 3.66418,-1.42157 4.92038,-4.67465 3.1748,-11.41272 2.33212,-8.92147 6.2516,-20.10147 1.13824,-4.09729 2.86067,-5.84712 2.96768,-5.53746 3.59243,0.053 0.10911,27.77708 8.114,30.18779 2.03445,0.17801 9.69172,-1.66638 14.05718,-6.97395 3.83256,-4.65966 2.39245,6.85544 17.66943,6.18174 9.19436,-0.98114 11.15412,-7.19839 11.6507,-9.05969 2.60213,-14.29487 0.34278,-17.8264 -0.48455,-18.997 -3.4709,-3.39223 -5.8631,-3.95724 -9.18532,-4.32168 -5.37257,-0.35259 -8.26169,-0.79416 -12.13673,1.76325 -1.39219,1.63503 -3.93553,10.16177 -2.10383,14.67684 2.16192,3.17886 16.86381,3.56445 25.15791,0.19868 4.21345,-4.78687 7.53074,-7.65551 10.92848,-9.24071 5.05901,-2.36026 11.73358,-3.98431 14.51966,-1.82347 1.30125,1.00922 -0.0121,3.47722 0.47791,5.93 0.0952,6.46737 -1.32915,11.99211 -4.07359,14.41659 -3.66404,2.03148 -3.25846,3.77267 -8.02984,4.03089 -5.44264,0.29454 -10.83885,-1.05 -7.74762,-6.21515 2.13957,-3.57501 6.60642,-3.92423 9.83052,-0.45249 2.32437,2.5029 4.54273,9.3972 7.31699,19.09866 2.04798,7.16169 3.8883,18.26184 3.74022,23.81357 z"
       sodipodi:nodetypes="ccccsscssccscssssccscsscsscsscsscccccsscscccsscccccsccccccscssscsscsssccccsscsccscsccccccccssccsssccsscccsssccccccccsscsccssccscccccccccsccssccscsscscccscscszzzzccsscsscccscscscsssccscsscsccssccccsccccccccccssssccsscccsscscccsccscccssccssscczzzzzzzscsscccssscsscscscssscscsssccccsccccccsccscsccccscccsssccccscsccssccssscscccsccccscssscssccccsscccccscccccccssccsssscc" />
  </g>
</svg>
